<svg width="306" height="352" viewBox="0 0 306 352" fill="none" xmlns="http://www.w3.org/2000/svg">
<path d="M13.837 104.838C6.61204 94.7406 10.2369 80.569 21.4226 75.1809L157.504 9.63175C168.195 4.48208 180.993 9.71969 185.005 20.8871L236.596 164.462C239.756 173.256 236.406 183.066 228.526 188.09L137.985 245.81C129.022 251.524 117.154 249.228 110.969 240.583L13.837 104.838Z" fill="#167388"/>
<g filter="url(#filter0_f_116_684)">
<circle cx="161.506" cy="170.313" r="29.3134" fill="white"/>
<path d="M190.039 195.718C190.039 211.908 180.042 252 163.852 252C147.663 252 131.412 211.908 131.412 195.718C131.412 179.529 144.536 166.405 160.726 166.405C176.915 166.405 190.039 179.529 190.039 195.718Z" fill="white"/>
<ellipse cx="190.577" cy="199.004" rx="19.9331" ry="10.162" transform="rotate(53.1703 190.577 199.004)" fill="white"/>
<ellipse cx="134.099" cy="200.01" rx="19.9331" ry="10.162" transform="rotate(111.499 134.099 200.01)" fill="white"/>
</g>
<circle cx="160.922" cy="164.18" r="36.1796" fill="white"/>
<path d="M196.138 195.535C196.138 199.338 195.691 204.21 194.83 209.605L140 244.509C136.734 239.015 133.799 232.884 131.353 226.734C126.671 214.964 123.779 203.122 123.779 195.535C123.779 175.554 139.977 159.355 159.959 159.355C179.94 159.355 196.138 175.554 196.138 195.535Z" fill="white"/>
<ellipse cx="198.214" cy="190.293" rx="24.6021" ry="12.5422" transform="rotate(-45 198.214 190.293)" fill="white"/>
<ellipse cx="120.265" cy="188.097" rx="24.6021" ry="12.5422" transform="rotate(-135 120.265 188.097)" fill="white"/>
<defs>
<filter id="filter0_f_116_684" x="22.1504" y="40.9999" width="282.882" height="311" filterUnits="userSpaceOnUse" color-interpolation-filters="sRGB">
<feFlood flood-opacity="0" result="BackgroundImageFix"/>
<feBlend mode="normal" in="SourceGraphic" in2="BackgroundImageFix" result="shape"/>
<feGaussianBlur stdDeviation="50" result="effect1_foregroundBlur_116_684"/>
</filter>
</defs>
</svg>
