<svg width="456" height="255" viewBox="0 0 456 255" fill="none" xmlns="http://www.w3.org/2000/svg">
<path d="M321.567 196.189L332.484 193.951L349.722 189.526L369.094 182.824L388.466 176.122L360.861 182.595L343.55 188.584L324.21 194.044L306.476 195.256L321.567 196.189Z" fill="#95E0F1" fill-opacity="0.5"/>
<path d="M398.614 173.536L405.354 168.345L416.584 160.791L430.345 153.547L444.106 146.303L414.229 165.316L401.303 173.435L389.923 179.319L398.614 173.536Z" fill="#95E0F1" fill-opacity="0.5"/>
<path d="M397.81 111.924L387.009 114.668L369.996 119.89L350.957 127.487L331.918 135.084L359.191 127.332L376.205 120.544L395.27 114.189L412.928 112.153L397.81 111.924Z" fill="#95E0F1" fill-opacity="0.5"/>
<path d="M290.695 167.145L383.918 128.95L404.855 138.569L311.773 179.593L290.695 167.145Z" fill="black"/>
<path d="M279.594 152.715L385.89 110.983L385.89 134.466L304.58 165.179L279.594 152.715Z" fill="#080F28"/>
<path d="M316.008 153.996L335.104 146.524L363.96 159.82L343.506 167.952L316.008 153.996Z" fill="#3A68AE"/>
<path d="M346.875 142.678L365.971 135.205L394.827 148.502L374.373 156.633L346.875 142.678Z" fill="#3A68AE"/>
<path d="M316.017 157.944L316.017 153.984L343.458 167.846L343.458 171.807L316.017 157.944Z" fill="#092F4B"/>
<path d="M346.876 146.628L346.876 142.667L374.317 156.53L374.317 160.49L346.876 146.628Z" fill="#092F4B"/>
<path d="M385.891 110.982L421.254 128.522V152.428L385.891 134.463V110.982Z" fill="#080F28"/>
<path d="M315.125 170.502L421.272 128.501L421.272 152.439L339.912 182.98L315.125 170.502Z" fill="#123C7B"/>
<path d="M279.598 152.715L304.895 164.927L291.114 182.982L266.219 170.675L279.598 152.715Z" fill="#080F28"/>
<path d="M266.219 170.636L315.161 170.494L339.915 182.942H291.114L266.219 170.636Z" fill="#123C7B"/>
<path d="M230.386 52.623L193.499 32.8546L171.291 22.5131L131.91 16.0737L174.21 25.4063L187.484 31.1018L203.068 39.7625L226.847 52.3569L236.739 71.0943L230.386 52.623Z" fill="#AAF2D7" fill-opacity="0.15"/>
<path d="M28.8364 87.5438L61.5018 119.248L81.585 131.682L131.001 133.059L179.501 131.682L129.501 131.682L85.0013 128.559L67.1797 119.249L53.3718 106.889L32.216 88.6496L25.3493 67.5588L28.8364 87.5438Z" fill="#AAF2D7" fill-opacity="0.15"/>
<path d="M93.9712 29.9577L81.1942 41.0374L68.4457 55.3501L66.5586 66.4525L70.8701 55.0537L79.7178 43.471L85.2434 38.9214L93.4183 31.7159L106.998 32.0602L93.9712 29.9577Z" fill="#95E0F1" fill-opacity="0.5"/>
<path d="M117.493 107.841L134.247 110.146L153.413 110.299L163.006 104.4L151.592 108.671L137.05 109.652L129.986 108.496L119.179 107.098L117.493 107.84L117.493 107.841Z" fill="#95E0F1" fill-opacity="0.5"/>
<path d="M113.266 70.3745L119.952 73.5124L124.306 74.9039L134.537 73.5747L124.057 74.2316L121.352 73.5548L118.592 72.1306L114.251 70.1553L115.291 65.0268L113.266 70.3745Z" fill="#95E0F1"/>
<path d="M123.282 54.8619L127.382 55.2554L130.965 55.8402L137.496 60.1219L130.517 56.1816L128.368 55.6996L125.875 55.6718L123.462 55.3763L119.346 57.1008L123.282 54.8619Z" fill="#95E0F1"/>
<path d="M126.198 66.5547C126.198 67.8786 127.271 68.9519 128.595 68.9519C129.919 68.9519 130.992 67.8786 130.992 66.5547C130.992 66.5547 129.919 67.7533 128.595 67.7533C127.271 67.7533 126.198 66.6067 126.198 66.5547Z" fill="black" fill-opacity="0.25"/>
<circle cx="3.59583" cy="3.59583" r="3.59583" transform="matrix(-1 0 0 1 132.195 60.5605)" fill="black" fill-opacity="0.25"/>
<path d="M252.008 36.4785C227.449 73.3195 128.504 62.5605 128.504 62.5605" stroke="#234163" stroke-linecap="round"/>
<path d="M265.019 50.6517L255.967 40.3457L252.196 36.0529C251.984 35.8115 251.588 36.0029 251.646 36.319V36.319C251.655 36.3671 251.675 36.4125 251.704 36.4517L256.406 42.7449L265.899 55.4501L284.884 80.8605L321.999 130.539C322.47 131.169 323.363 131.295 323.99 130.82V130.82C324.614 130.347 324.736 129.459 324.264 128.835L265.019 50.6517Z" fill="url(#paint0_linear_432_1095)"/>
<g filter="url(#filter0_f_432_1095)">
<ellipse cx="335.496" cy="156.743" rx="5.57429" ry="1.79173" fill="white"/>
</g>
<g filter="url(#filter1_f_432_1095)">
<circle cx="334.274" cy="115.059" r="14.2579" fill="white"/>
<path d="M348.156 127.414C348.156 135.289 343.294 154.789 335.419 154.789C327.545 154.789 319.641 135.289 319.641 127.414C319.641 119.54 326.024 113.156 333.899 113.156C341.773 113.156 348.156 119.54 348.156 127.414Z" fill="white"/>
<ellipse cx="348.418" cy="129.012" rx="9.69538" ry="4.94275" transform="rotate(53.1703 348.418 129.012)" fill="white"/>
<ellipse cx="320.949" cy="129.502" rx="9.69539" ry="4.94275" transform="rotate(111.499 320.949 129.502)" fill="white"/>
</g>
<circle cx="334.281" cy="115.059" r="14.2579" fill="white"/>
<path d="M348.156 127.414C348.156 135.289 343.294 154.789 335.419 154.789C327.545 154.789 319.641 135.289 319.641 127.414C319.641 119.54 326.024 113.156 333.899 113.156C341.773 113.156 348.156 119.54 348.156 127.414Z" fill="white"/>
<ellipse cx="342.513" cy="127.275" rx="9.69538" ry="4.94275" transform="rotate(126.273 342.513 127.275)" fill="white"/>
<ellipse cx="322.884" cy="127.397" rx="9.69539" ry="4.94275" transform="rotate(116.421 322.884 127.397)" fill="white"/>
<defs>
<filter id="filter0_f_432_1095" x="319.922" y="144.951" width="31.1484" height="23.584" filterUnits="userSpaceOnUse" color-interpolation-filters="sRGB">
<feFlood flood-opacity="0" result="BackgroundImageFix"/>
<feBlend mode="normal" in="SourceGraphic" in2="BackgroundImageFix" result="shape"/>
<feGaussianBlur stdDeviation="5" result="effect1_foregroundBlur_432_1095"/>
</filter>
<filter id="filter1_f_432_1095" x="215.141" y="0.800781" width="240.312" height="253.988" filterUnits="userSpaceOnUse" color-interpolation-filters="sRGB">
<feFlood flood-opacity="0" result="BackgroundImageFix"/>
<feBlend mode="normal" in="SourceGraphic" in2="BackgroundImageFix" result="shape"/>
<feGaussianBlur stdDeviation="50" result="effect1_foregroundBlur_432_1095"/>
</filter>
<linearGradient id="paint0_linear_432_1095" x1="289.563" y1="68.4223" x2="273.215" y2="80.5058" gradientUnits="userSpaceOnUse">
<stop offset="0.316716" stop-color="#166688"/>
<stop offset="1"/>
</linearGradient>
</defs>
</svg>
