<svg width="22" height="21" viewBox="0 0 22 21" fill="none" xmlns="http://www.w3.org/2000/svg">
<g clip-path="url(#clip0_570_2)">
<path fill-rule="evenodd" clip-rule="evenodd" d="M21.25 10.5589C21.25 5.00407 16.7723 0.5 11.25 0.5C5.72768 0.5 1.25 5.00407 1.25 10.5589C1.25 15.5794 4.90625 19.7409 9.6875 20.4962V13.4675H7.14777V10.5589H9.6875V8.34282C9.6875 5.82225 11.1808 4.42882 13.4647 4.42882C14.5589 4.42882 15.7036 4.62551 15.7036 4.62551V7.10117H14.442C13.2004 7.10117 12.8121 7.87625 12.8121 8.67288V10.5589H15.5853L15.1424 13.4675H12.8125V20.4971C17.5938 19.7422 21.25 15.5808 21.25 10.5589Z" fill="white"/>
</g>
<defs>
<clipPath id="clip0_570_2">
<rect width="21" height="20" fill="white" transform="translate(0.5 0.5)"/>
</clipPath>
</defs>
</svg>
