<svg width="18" height="18" viewBox="0 0 18 18" fill="none" xmlns="http://www.w3.org/2000/svg">
<path d="M12.3957 1.45799C13.3618 1.46087 14.2875 1.84588 14.9707 2.52894C15.6538 3.21199 16.0389 4.13757 16.0418 5.10355V12.3939C16.0389 13.3599 15.6538 14.2854 14.9707 14.9685C14.2875 15.6515 13.3618 16.0366 12.3957 16.0394H5.1043C4.13818 16.0366 3.21246 15.6515 2.52931 14.9685C1.84616 14.2854 1.46109 13.3599 1.4582 12.3939V5.10355C1.46109 4.13757 1.84616 3.21199 2.52931 2.52894C3.21246 1.84588 4.13818 1.46087 5.1043 1.45799H12.3957ZM12.3957 0H5.1043C2.29687 0 0 2.29654 0 5.10355V12.3939C0 15.2009 2.29687 17.4974 5.1043 17.4974H12.3957C15.2031 17.4974 17.5 15.2009 17.5 12.3939V5.10355C17.5 2.29654 15.2031 0 12.3957 0Z" fill="white"/>
<path d="M13.4895 5.1032C13.2731 5.1032 13.0617 5.03906 12.8818 4.91889C12.7019 4.79873 12.5617 4.62793 12.479 4.4281C12.3962 4.22828 12.3745 4.00839 12.4167 3.79626C12.4589 3.58412 12.5631 3.38926 12.7161 3.23632C12.869 3.08338 13.0639 2.97923 13.2761 2.93703C13.4882 2.89483 13.7082 2.91649 13.908 2.99926C14.1079 3.08203 14.2787 3.2222 14.3989 3.40204C14.5191 3.58188 14.5832 3.79331 14.5832 4.00961C14.5835 4.1533 14.5554 4.29565 14.5006 4.42847C14.4457 4.56129 14.3652 4.68197 14.2635 4.78358C14.1619 4.88519 14.0412 4.96573 13.9084 5.02058C13.7755 5.07543 13.6332 5.1035 13.4895 5.1032ZM8.75 5.832C9.32689 5.832 9.89082 6.00304 10.3705 6.32349C10.8502 6.64395 11.224 7.09942 11.4448 7.63232C11.6655 8.16521 11.7233 8.7516 11.6108 9.31732C11.4982 9.88304 11.2204 10.4027 10.8125 10.8105C10.4046 11.2184 9.88484 11.4962 9.31904 11.6087C8.75324 11.7212 8.16677 11.6635 7.63379 11.4427C7.10082 11.222 6.64528 10.8482 6.32477 10.3686C6.00427 9.88902 5.83321 9.32517 5.83321 8.74836C5.83403 7.97515 6.1416 7.23384 6.68843 6.68709C7.23525 6.14035 7.97667 5.83282 8.75 5.832ZM8.75 4.37401C7.88471 4.37401 7.03885 4.63056 6.31938 5.11122C5.59992 5.59188 5.03916 6.27506 4.70803 7.07437C4.3769 7.87368 4.29026 8.75322 4.45907 9.60176C4.62788 10.4503 5.04456 11.2297 5.65641 11.8415C6.26826 12.4533 7.04781 12.8699 7.89648 13.0387C8.74515 13.2075 9.62481 13.1208 10.4242 12.7897C11.2237 12.4587 11.907 11.898 12.3877 11.1786C12.8684 10.4593 13.125 9.61353 13.125 8.74836C13.125 7.58821 12.6641 6.47558 11.8436 5.65523C11.0231 4.83487 9.91032 4.37401 8.75 4.37401Z" fill="white"/>
</svg>
