<svg width="1277" height="607" viewBox="0 0 1277 607" fill="none" xmlns="http://www.w3.org/2000/svg">
<path d="M637.785 594.393C626.473 593.017 616.069 579.005 613.856 571.67C613.532 570.597 606.456 571.294 606.552 570.505C611.905 566.722 612.27 563.718 613.497 558.879C614.01 558.201 614.432 567.841 615.598 567.84C620.386 567.834 630.062 572.532 639.564 573.687C641.515 573.924 638.014 560.812 639.8 561.246C641.929 561.764 648.97 575.136 650.785 575.883C657.567 578.672 664.106 583.546 663.602 587.69C663.098 591.834 657.281 593.274 650.027 594.357C648.087 594.646 638.996 602.455 636.805 602.448C634.967 602.441 639.736 594.63 637.785 594.393Z" fill="black" fill-opacity="0.2"/>
<path d="M1252.31 193.743C1243.5 200.968 1234.74 200.017 1225.74 204.492C1224.74 203.984 1223.75 212.527 1223.24 211.912C1224.21 205.429 1216.89 207.143 1214.24 202.912C1214.11 202.072 1223.37 201.43 1224.17 200.586C1225.74 192.412 1231.18 184.216 1238.58 178.147C1240.1 176.9 1228.2 170.369 1229.75 169.378C1231.6 168.197 1246.13 172.35 1247.92 171.555C1254.62 168.58 1262.67 167.223 1265.31 170.451C1267.96 173.679 1264.98 178.879 1260.75 184.869C1259.62 186.472 1258.98 198.439 1257.46 200.017C1256.18 201.342 1253.83 192.496 1252.31 193.743Z" fill="black" fill-opacity="0.2"/>
<path d="M490.277 55.0442C476.299 65.9839 456.847 72.6045 447.897 68.9582C446.587 68.4248 444.062 80.9966 443.476 80.248C442.489 71.3666 441.174 71.0377 435.582 70.3798C435.564 69.2767 445.178 65.2085 446.494 63.9633C451.894 58.8518 462.33 45.379 474.072 36.1897C476.483 34.3025 460.996 27.2995 463.395 25.7494C466.253 23.9024 485.964 27.3438 488.668 26.0194C498.777 21.0689 510.446 18.0864 513.522 22.0175C516.599 25.9486 511.299 33.3328 504.065 41.956C502.129 44.263 498.737 60.3548 496.258 62.6854C494.176 64.6415 492.689 53.157 490.277 55.0442Z" fill="black" fill-opacity="0.2"/>
<path d="M60.8264 569.015C76.2005 555.28 82.1863 529.344 80.6748 519.283C80.4536 517.811 91.0667 510.844 90.4241 510.125C80.3136 511.997 77.8676 509.259 73.0105 505.543C71.8392 505.393 77.3986 515.913 75.722 517.179C68.8388 522.38 57.9409 537.803 45.0268 549.341C42.3746 551.71 39.0197 534.218 36.7302 536.614C34.0024 539.468 32.4389 561.081 30.3089 563.832C22.3475 574.118 16.07 586.315 19.4445 590.092C22.8189 593.869 32.0985 589.046 43.2125 582.289C46.186 580.482 64.2426 578.747 67.3856 576.357C70.0235 574.351 58.1743 571.385 60.8264 569.015Z" fill="black" fill-opacity="0.2"/>
</svg>
