<svg width="1176" height="348" viewBox="0 0 1176 348" fill="none" xmlns="http://www.w3.org/2000/svg">
<path d="M1163.77 14.1211H0.0142822V321.958H1163.77V14.1211Z" fill="url(#paint0_radial_432_1094)"/>
<path d="M1027.29 141.997L949.221 114.626L859.064 93.0484L762.417 66.4868L597.083 55.3554L756.326 68.4816L835.999 87.8079L933.29 113.554L1017.81 141.358L1026.09 194.713L1027.29 141.997Z" fill="#AAE9F2" fill-opacity="0.2"/>
<path d="M764.75 146.181L699.256 125.467L659.826 114.63L589.906 107.883L665.009 117.662L688.577 123.63L716.248 132.705L758.466 145.903L776.03 165.537L764.75 146.181Z" fill="#95E0F1" fill-opacity="0.5"/>
<path d="M149.39 232.909L236.384 254.756L333.231 270.077L438.288 289.89L605.641 289.89L443.587 287.514L357.907 273.72L252.508 254.756L158.984 232.909L131.572 180.749L149.39 232.909Z" fill="#AAE9F2" fill-opacity="0.2"/>
<path d="M784.815 258.411L821.412 247.494L850.563 225.933L878.42 201.761L886.075 160.471L875.432 200.178L852.757 219.715L822.15 243.516L787.725 254.175L715.986 264.757L784.815 258.411Z" fill="#AAE9F2" fill-opacity="0.2"/>
<path d="M243.786 108.945L228.226 120.698L217.84 137.245L208.471 155.052L211.302 179.299L210.127 155.475L217.775 141.058L228.499 123.034L243.074 111.761L275.263 94.7658L243.786 108.945Z" fill="#AAE9F2" fill-opacity="0.2"/>
<path d="M930.925 235.206L944.224 226.614L951.051 213.586L956.53 199.421L947.892 178.876L954.719 198.934L950.219 210.397L943.392 224.634L930.996 232.904L901.759 244.547L930.925 235.206Z" fill="#AAE9F2" fill-opacity="0.2"/>
<path d="M407.257 211.311L479.428 227.42L522.289 235.503L593.798 237.518L516.076 232.852L490.641 228.524L460.032 221.399L413.566 211.169L389.136 192.939L407.257 211.311Z" fill="#95E0F1" fill-opacity="0.5"/>
<path d="M556.804 164.786L568.676 168.074L576.407 169.532L594.571 168.139L575.965 168.827L571.162 168.118L566.262 166.626L558.554 164.556L560.4 159.182L556.804 164.786Z" fill="#95E0F1" fill-opacity="0.75"/>
<path d="M587.883 144.644L594.092 146.925L599.328 149.144L606.331 156.206L598.345 149.255L595.309 147.801L591.367 146.613L587.762 145.21L579.857 144.91L587.883 144.644Z" fill="#95E0F1" fill-opacity="0.75"/>
<path d="M439.641 80.49L361.537 114.175L318.521 136.946L287.989 183.188L330.072 134.708L353.916 120.859L389.499 105.571L441.408 81.9411L514.898 78.7625L439.641 80.49Z" fill="#95E0F1" fill-opacity="0.5"/>
<path d="M677.887 148.825C670.394 142.221 649.282 138.02 639.934 137.767C638.566 137.73 635.616 133.37 634.787 133.543C633.386 137.32 630.227 137.981 625.475 139.43C624.989 139.839 635.965 138.676 636.578 139.378C639.094 142.26 649.431 147.391 655.725 152.939C657.017 154.078 640.545 153.898 641.97 154.909C643.669 156.114 662.296 158.385 664.084 159.367C670.768 163.038 679.65 166.256 684.008 165.344C688.366 164.432 686.908 160.72 684.295 156.197C683.596 154.987 687.52 148.369 686.357 147.052C685.382 145.947 679.179 149.964 677.887 148.825Z" fill="black" fill-opacity="0.2"/>
<path d="M556.675 202.473C575.15 204.183 598.123 199.032 605.053 195.64C606.067 195.143 616.893 197.034 617.112 196.597C610.45 193.45 611.284 191.787 611.621 188.971C611.131 188.503 605.942 193.496 604.104 193.245C596.56 192.211 579.105 192.606 563.586 191.17C560.399 190.875 572.072 184.713 569.052 184.558C565.453 184.373 548.081 189.91 544.87 189.913C532.871 189.924 520.278 191.087 519.127 193.381C517.977 195.675 526.471 197.687 537.395 199.819C540.318 200.389 550.982 206.465 554.439 206.932C557.34 207.324 553.488 202.178 556.675 202.473Z" fill="black" fill-opacity="0.2"/>
<path d="M496.671 133.261C486.449 137.558 484.434 145.937 486.528 149.232C486.834 149.714 479.538 151.861 480.088 152.103C487.494 151.61 489.59 152.53 493.588 153.796C494.481 153.859 489.307 150.368 490.444 149.974C495.111 148.36 501.814 143.461 510.401 139.852C512.164 139.11 516.35 144.847 517.839 144.093C519.613 143.194 518.723 136.172 520.058 135.301C525.049 132.042 528.594 128.141 525.702 126.872C522.81 125.603 516.31 127.067 508.617 129.14C506.559 129.694 493.18 130.051 491.05 130.794C489.263 131.417 498.434 132.519 496.671 133.261Z" fill="black" fill-opacity="0.2"/>
<g filter="url(#filter0_f_432_1094)">
<path d="M820.449 110.526C815.674 116.453 815.692 126.775 817.201 130.635C817.422 131.199 813.897 134.312 814.214 134.568C818.007 133.457 819.215 134.43 821.458 135.694C821.93 135.708 818.792 131.823 819.334 131.266C821.558 128.982 824.425 122.567 828.435 117.588C829.259 116.565 832.168 123.248 832.847 122.229C833.657 121.014 832.3 112.542 832.884 111.391C835.067 107.086 836.417 102.101 834.75 100.759C833.083 99.4157 829.885 101.644 826.144 104.693C825.143 105.509 818.223 106.867 817.209 107.916C816.358 108.796 821.273 109.503 820.449 110.526Z" fill="white"/>
</g>
<path d="M820.449 110.526C815.674 116.453 815.692 126.775 817.201 130.635C817.422 131.199 813.897 134.312 814.214 134.568C818.007 133.457 819.215 134.43 821.458 135.694C821.93 135.708 818.792 131.823 819.334 131.266C821.558 128.982 824.425 122.567 828.435 117.588C829.259 116.565 832.168 123.248 832.847 122.229C833.657 121.014 832.3 112.542 832.884 111.391C835.067 107.086 836.417 102.101 834.75 100.759C833.083 99.4157 829.885 101.644 826.144 104.693C825.143 105.509 818.223 106.867 817.209 107.916C816.358 108.796 821.273 109.503 820.449 110.526Z" fill="white"/>
<path d="M798.573 153.352C797.874 151.299 800.725 149.984 801.834 151.848V151.848C802.648 153.217 804.708 152.937 805.127 151.4L805.695 149.316C806.262 147.238 808.904 146.61 810.345 148.211L810.866 148.79C811.283 149.255 811.835 149.577 812.445 149.712L814.976 150.275C815.644 150.423 816.241 150.795 816.668 151.329L818.039 153.042C819.622 155.022 822.795 154.267 823.317 151.786L823.85 149.255C823.953 148.762 824.18 148.303 824.508 147.921L825.959 146.228C827.594 144.32 830.708 145.147 831.183 147.613L831.42 148.848C831.878 151.231 834.829 152.112 836.519 150.371L837.601 149.257C839.923 146.864 843.83 149.477 842.507 152.537L841.201 155.558C841.073 155.853 840.994 156.167 840.966 156.488L840.224 165.02C840.099 166.46 838.965 167.606 837.526 167.746L819.811 169.474C819.609 169.494 819.406 169.493 819.205 169.472L803.393 167.808C801.784 167.638 800.599 166.224 800.714 164.61L800.971 161.017C800.995 160.678 800.951 160.338 800.842 160.017L798.573 153.352Z" fill="url(#paint1_linear_432_1094)"/>
<path d="M798.329 138.528C799.567 139.629 799.975 141.191 799.241 142.016C798.507 142.841 799.749 141.605 798.512 140.504C797.274 139.402 794.024 138.853 794.759 138.028C795.493 137.202 797.092 137.426 798.329 138.528Z" fill="url(#paint2_linear_432_1094)"/>
<path d="M837.252 137.998C836.014 139.099 835.606 140.661 836.341 141.486C837.075 142.311 835.768 142.105 837.006 141.004C838.244 139.902 841.557 138.323 840.823 137.497C840.089 136.672 838.49 136.896 837.252 137.998Z" fill="url(#paint3_linear_432_1094)"/>
<path d="M805.121 141.081C805.79 141.676 806.011 142.52 805.614 142.965C805.217 143.411 805.923 143.3 805.254 142.705C804.586 142.11 802.795 141.256 803.192 140.81C803.589 140.365 804.453 140.486 805.121 141.081Z" fill="url(#paint4_linear_432_1094)"/>
<defs>
<filter id="filter0_f_432_1094" x="794.195" y="80.3594" width="61.2969" height="75.334" filterUnits="userSpaceOnUse" color-interpolation-filters="sRGB">
<feFlood flood-opacity="0" result="BackgroundImageFix"/>
<feBlend mode="normal" in="SourceGraphic" in2="BackgroundImageFix" result="shape"/>
<feGaussianBlur stdDeviation="10" result="effect1_foregroundBlur_432_1094"/>
</filter>
<radialGradient id="paint0_radial_432_1094" cx="0" cy="0" r="1" gradientUnits="userSpaceOnUse" gradientTransform="translate(581.89 169.452) rotate(91.4818) scale(127.131 570.236)">
<stop stop-color="#0B315B"/>
<stop offset="1" stop-color="#080F28"/>
</radialGradient>
<linearGradient id="paint1_linear_432_1094" x1="821.008" y1="120.504" x2="821.008" y2="169.504" gradientUnits="userSpaceOnUse">
<stop stop-color="#AAE5F2"/>
<stop stop-color="#AAF2D7"/>
<stop offset="0.0001" stop-color="#AAF2D7"/>
<stop offset="0.753125" stop-color="#AAF2D7" stop-opacity="0"/>
</linearGradient>
<linearGradient id="paint2_linear_432_1094" x1="789.882" y1="131.504" x2="799.785" y2="141.407" gradientUnits="userSpaceOnUse">
<stop stop-color="#AAE5F2"/>
<stop offset="1" stop-color="#AAF2D7" stop-opacity="0"/>
</linearGradient>
<linearGradient id="paint3_linear_432_1094" x1="845.006" y1="131.664" x2="835.793" y2="140.877" gradientUnits="userSpaceOnUse">
<stop stop-color="#AAE5F2"/>
<stop offset="1" stop-color="#AAF2D7" stop-opacity="0"/>
</linearGradient>
<linearGradient id="paint4_linear_432_1094" x1="801.277" y1="138.004" x2="805.91" y2="142.637" gradientUnits="userSpaceOnUse">
<stop stop-color="#AAE5F2"/>
<stop offset="1" stop-color="#AAF2D7" stop-opacity="0"/>
</linearGradient>
</defs>
</svg>
