<svg width="20" height="20" viewBox="0 0 20 20" fill="none" xmlns="http://www.w3.org/2000/svg">
<path fill-rule="evenodd" clip-rule="evenodd" d="M18.5515 0H1.5075C0.692187 0 0 0.644687 0 1.4391V18.5602C0 19.3553 0.454258 20 1.26922 20H18.3132C19.1296 20 20 19.3553 20 18.5602V1.4391C20 0.644687 19.3675 0 18.5515 0ZM7.61887 7.61887H10.3114V8.99137H10.3409C10.7512 8.25133 11.9636 7.50008 13.4628 7.50008C16.3399 7.50008 17.143 9.02773 17.143 11.857V17.143H14.2857V12.3782C14.2857 11.1116 13.7799 10 12.5971 10C11.1609 10 10.4762 10.9722 10.4762 12.5687V17.143H7.61887V7.61887ZM2.85699 17.143H5.71434V7.61887H2.85699V17.143ZM6.07141 4.28566C6.07141 5.2723 5.2723 6.07141 4.28566 6.07141C3.29902 6.07141 2.49992 5.2723 2.49992 4.28566C2.49992 3.29902 3.29902 2.49992 4.28566 2.49992C5.2723 2.49992 6.07141 3.29902 6.07141 4.28566Z" fill="white"/>
</svg>
