<svg width="18" height="26" viewBox="0 0 18 26" fill="none" xmlns="http://www.w3.org/2000/svg">
<path d="M9 1C4.58333 1 1 4.54191 1 8.90424C1 13.9237 6.33333 21.8782 8.29167 24.6256C8.37296 24.7416 8.4795 24.8359 8.6026 24.901C8.7257 24.9661 8.86187 25 9 25C9.13813 25 9.2743 24.9661 9.3974 24.901C9.5205 24.8359 9.62705 24.7416 9.70833 24.6256C11.6667 21.8793 17 13.9278 17 8.90424C17 4.54191 13.4167 1 9 1Z" stroke="white" stroke-width="2" stroke-linecap="round" stroke-linejoin="round"/>
<path d="M9.00069 12.077C10.4734 12.077 11.6674 10.8371 11.6674 9.30765C11.6674 7.77817 10.4734 6.53828 9.00069 6.53828C7.52793 6.53828 6.33402 7.77817 6.33402 9.30765C6.33402 10.8371 7.52793 12.077 9.00069 12.077Z" stroke="white" stroke-width="2" stroke-linecap="round" stroke-linejoin="round"/>
</svg>
