<svg width="168" height="117" viewBox="0 0 168 117" fill="none" xmlns="http://www.w3.org/2000/svg">
<g filter="url(#filter0_i_432_696)">
<circle cx="43.1963" cy="43.1983" r="43.1963" fill="white"/>
</g>
<g filter="url(#filter1_f_432_696)">
<path d="M12.1943 52.9512L23.3417 56.7831L28.2185 62.3568L19.1613 68.2789L17.0711 77.6845L9.75561 70.0207V65.8404L6.96875 59.57V54.3446L12.1943 52.9512Z" fill="#D9D9D9"/>
</g>
<g filter="url(#filter2_f_432_696)">
<path d="M65.2823 76.4735L63.5216 75.1348L65.8168 72.8596L70.746 71.0009L70.3873 72.8796L69.9058 74.6773L65.2823 76.4735Z" fill="#D9D9D9"/>
</g>
<g filter="url(#filter3_f_432_696)">
<path d="M84.4618 39.8834L83.6457 51.6428L79.7714 50.9955L70.7141 56.7824L71.3806 51.6428L70.7141 45.635L71.3806 40.8638L78.378 39.8834L81.7634 35.1966L84.4618 39.8834Z" fill="#D9D9D9"/>
</g>
<g filter="url(#filter4_f_432_696)">
<path d="M78.3526 21.7911L83.3426 31.8475L81.414 31.1637L80.2169 35.8249L78.1667 31.4398L75.1601 26.266L73.2771 22.1969L75.7852 21.5889L75.0878 17.6825L78.3526 21.7911Z" fill="#D9D9D9"/>
</g>
<g filter="url(#filter5_f_432_696)">
<path d="M5.89146 54.7918L5.63906 57.7597L5.12751 57.5784L4.80999 58.8147L4.26617 57.6516L3.46868 56.2793L2.9692 55.1999L2.40586 54.4436L3.44949 54.0025L5.89146 54.7918Z" fill="#D9D9D9"/>
</g>
<g filter="url(#filter6_f_432_696)">
<path d="M29.2637 83.6058L20.554 78.4935L23.6882 68.28L32.0493 73.8536L49.4671 68.28L56.4324 68.2794L76.6371 55.7385L75.5952 65.8385L65.4235 67.8209L54.2099 79.9033L47.3751 83.6071L40.302 81.9937L44.1153 72.7152L36.5792 83.6071L29.2637 83.6058Z" fill="#D9D9D9"/>
</g>
<g filter="url(#filter7_f_432_696)">
<path d="M43.9261 17L49 18.3701L48.7999 23.8203L43.8393 22.1767L35.8232 27.2263L32.3171 28.1468L23.8378 37L23 31.8822L27.8529 29.5608L31.8679 22.1216L34.8089 19.3923L38.587 19.2533L37.919 24.3322L40.2434 17.9659L43.9261 17Z" fill="#D9D9D9"/>
</g>
<path d="M167.762 91.9255C166.426 99.1805 161.776 102.721 151.665 106.899C154.705 114.427 119.649 109.612 119.649 109.612C119.649 109.612 99.2865 117 86.381 117C73.4754 117 51.3245 106.899 51.3245 106.899C51.3245 106.899 27.6625 109.78 19.8453 106.367C10.4934 102.285 5 97.3027 5 91.9255C5 83.4772 42.3816 82.2136 42.3816 82.2136C42.3816 82.2136 52.5789 69 70.1048 69C80.4915 69 82.8038 78.8885 82.8038 78.8885C82.8038 78.8885 111.421 59.993 129.844 77.6511C161.681 73.7663 169.551 82.2136 167.762 91.9255Z" fill="url(#paint0_linear_432_696)" fill-opacity="0.75"/>
<defs>
<filter id="filter0_i_432_696" x="0" y="0.00195312" width="91.3906" height="91.3926" filterUnits="userSpaceOnUse" color-interpolation-filters="sRGB">
<feFlood flood-opacity="0" result="BackgroundImageFix"/>
<feBlend mode="normal" in="SourceGraphic" in2="BackgroundImageFix" result="shape"/>
<feColorMatrix in="SourceAlpha" type="matrix" values="0 0 0 0 0 0 0 0 0 0 0 0 0 0 0 0 0 0 127 0" result="hardAlpha"/>
<feOffset dx="10" dy="10"/>
<feGaussianBlur stdDeviation="2.5"/>
<feComposite in2="hardAlpha" operator="arithmetic" k2="-1" k3="1"/>
<feColorMatrix type="matrix" values="0 0 0 0 0 0 0 0 0 0 0 0 0 0 0 0 0 0 0.25 0"/>
<feBlend mode="normal" in2="shape" result="effect1_innerShadow_432_696"/>
</filter>
<filter id="filter1_f_432_696" x="4.96875" y="50.9512" width="25.25" height="28.7324" filterUnits="userSpaceOnUse" color-interpolation-filters="sRGB">
<feFlood flood-opacity="0" result="BackgroundImageFix"/>
<feBlend mode="normal" in="SourceGraphic" in2="BackgroundImageFix" result="shape"/>
<feGaussianBlur stdDeviation="1" result="effect1_foregroundBlur_432_696"/>
</filter>
<filter id="filter2_f_432_696" x="61.5234" y="69" width="11.2188" height="9.47266" filterUnits="userSpaceOnUse" color-interpolation-filters="sRGB">
<feFlood flood-opacity="0" result="BackgroundImageFix"/>
<feBlend mode="normal" in="SourceGraphic" in2="BackgroundImageFix" result="shape"/>
<feGaussianBlur stdDeviation="1" result="effect1_foregroundBlur_432_696"/>
</filter>
<filter id="filter3_f_432_696" x="68.7109" y="33.1973" width="17.75" height="25.5859" filterUnits="userSpaceOnUse" color-interpolation-filters="sRGB">
<feFlood flood-opacity="0" result="BackgroundImageFix"/>
<feBlend mode="normal" in="SourceGraphic" in2="BackgroundImageFix" result="shape"/>
<feGaussianBlur stdDeviation="1" result="effect1_foregroundBlur_432_696"/>
</filter>
<filter id="filter4_f_432_696" x="71.2734" y="15.6816" width="14.0703" height="22.1426" filterUnits="userSpaceOnUse" color-interpolation-filters="sRGB">
<feFlood flood-opacity="0" result="BackgroundImageFix"/>
<feBlend mode="normal" in="SourceGraphic" in2="BackgroundImageFix" result="shape"/>
<feGaussianBlur stdDeviation="1" result="effect1_foregroundBlur_432_696"/>
</filter>
<filter id="filter5_f_432_696" x="0.40625" y="52.002" width="7.48438" height="8.8125" filterUnits="userSpaceOnUse" color-interpolation-filters="sRGB">
<feFlood flood-opacity="0" result="BackgroundImageFix"/>
<feBlend mode="normal" in="SourceGraphic" in2="BackgroundImageFix" result="shape"/>
<feGaussianBlur stdDeviation="1" result="effect1_foregroundBlur_432_696"/>
</filter>
<filter id="filter6_f_432_696" x="18.5547" y="53.7383" width="60.0859" height="31.8691" filterUnits="userSpaceOnUse" color-interpolation-filters="sRGB">
<feFlood flood-opacity="0" result="BackgroundImageFix"/>
<feBlend mode="normal" in="SourceGraphic" in2="BackgroundImageFix" result="shape"/>
<feGaussianBlur stdDeviation="1" result="effect1_foregroundBlur_432_696"/>
</filter>
<filter id="filter7_f_432_696" x="21" y="15" width="30" height="24" filterUnits="userSpaceOnUse" color-interpolation-filters="sRGB">
<feFlood flood-opacity="0" result="BackgroundImageFix"/>
<feBlend mode="normal" in="SourceGraphic" in2="BackgroundImageFix" result="shape"/>
<feGaussianBlur stdDeviation="1" result="effect1_foregroundBlur_432_696"/>
</filter>
<linearGradient id="paint0_linear_432_696" x1="92.5" y1="117" x2="83.1793" y2="48.665" gradientUnits="userSpaceOnUse">
<stop offset="0.117708" stop-color="#02061C"/>
<stop offset="0.550805" stop-color="#0D688F"/>
<stop offset="1" stop-color="white"/>
</linearGradient>
</defs>
</svg>
