<svg width="422" height="474" viewBox="0 0 422 474" fill="none" xmlns="http://www.w3.org/2000/svg">
<path d="M281.692 317.978C316.884 190.536 123.325 190.536 162.036 317.978C128.169 344.745 128.251 371.685 134.155 386.226C135.787 390.247 140.011 392.442 144.316 391.897C156.766 390.321 163.554 384.72 165.556 381.699C193.71 502.061 260.576 505.601 281.692 381.699C295.317 395.406 306.807 396.213 313.204 394.155C315.767 393.33 317.394 390.954 318.024 388.337C325.81 356.029 297.471 328.181 281.692 317.978Z" fill="#FDFFFC"/>
<path d="M185.436 71.0723C200.65 128.093 212.984 165.093 223.357 175.458C232.05 133.592 255.433 129.706 259.262 71.0723C263.092 12.4384 240.112 -0.000768445 223.356 0C203.818 0.000896132 172.763 23.5751 185.436 71.0723Z" fill="#FDFFFC"/>
<path d="M321.371 114.885C288.107 152.33 267.577 178.194 264.929 189.959C276.858 191.73 311.453 188.828 354.399 163.056C375.761 150.237 395.812 116.292 388.316 105.359C380.819 94.4254 364.206 66.6655 321.371 114.885Z" fill="#FDFFFC"/>
<path d="M381.508 207.608C337.267 202.751 322.283 215.724 313.31 221.583C319.817 230.098 362.418 258.761 372.732 258.761C403.675 258.761 415.311 253.414 417.302 241.804C419.294 230.194 411.526 210.904 381.508 207.608Z" fill="#FDFFFC"/>
<path d="M118.167 104.852C157.687 135.623 160.444 155.475 174.609 179.926C162.68 181.697 128.085 178.795 85.139 153.023C56.4511 135.807 44.6906 104.852 51.2225 95.3256C58.7189 84.3923 68.0058 65.7946 118.167 104.852Z" fill="#FDFFFC"/>
<path d="M54.8118 195.831C80.8132 192.975 126.531 202.715 135.504 208.574C112.589 233.383 103.626 231.556 61.8204 246.825C43.26 253.604 6.46937 242.661 4.47825 231.052C2.4865 219.441 10.571 200.69 54.8118 195.831Z" fill="#FDFFFC"/>
</svg>
