<svg width="335" height="96" viewBox="0 0 335 96" fill="none" xmlns="http://www.w3.org/2000/svg">
<path d="M51.9544 0.619141C53.8535 0.619141 55.21 2.00305 55.21 3.94054V91.404C55.21 93.2031 53.8535 94.7254 51.9544 94.7254H48.2918C47.8849 95.0022 47.3423 95.1406 46.7997 95.1406H37.5754C36.2189 95.1406 34.998 94.1718 34.4554 92.9263C28.3511 75.9041 22.2468 58.882 16.1425 41.8598V91.404C16.1425 93.2031 14.6503 94.7254 12.8869 94.7254H3.25563C1.35651 94.7254 0 93.2031 0 91.404V3.94054C0 2.00305 1.35651 0.619141 3.25563 0.619141H12.8869C13.1582 0.619141 13.4295 0.619141 13.5651 0.619141H17.0921C18.4486 0.619141 19.8051 1.58788 20.212 2.9718L39.0676 58.3284V3.94054C39.0676 2.00305 40.4241 0.619141 42.3232 0.619141H51.9544Z" fill="#FDFFFC"/>
<path d="M127.952 60.4043C127.952 61.9266 127.952 63.4489 127.952 64.9712V92.096C127.952 93.895 126.46 95.279 124.832 95.279H114.794C113.03 95.279 111.674 93.895 111.674 92.096V90.9888C109.368 92.3727 106.79 93.4799 103.806 94.3102C102.856 94.587 86.1714 99.0155 72.6063 87.1139C70.8428 85.7299 59.855 75.7658 60.8046 60.4043C61.6185 46.4267 71.6567 35.909 82.3731 31.6188C83.3227 31.2037 98.1087 25.3912 111.674 33.1412V31.8956C111.674 30.0965 113.03 28.7126 114.794 28.7126H124.832C126.46 28.7126 127.952 30.0965 127.952 31.8956V60.4043ZM95.3957 76.0425C103.263 75.3506 109.232 68.0158 108.283 59.7123C106.655 53.3463 101.364 48.641 95.3957 48.2258C87.9348 47.6723 80.474 53.6231 80.2027 61.6498C79.9314 69.8149 87.2566 76.5961 95.3957 76.0425Z" fill="#FDFFFC"/>
<path d="M196.881 28.851C199.187 28.851 200.815 31.2037 200.001 33.4179C192.54 53.7615 184.943 74.1051 177.483 94.4486C167.58 94.4486 167.309 94.4486 157.406 94.587C149.539 73.8283 141.535 53.0695 133.667 32.3108C132.989 30.6501 134.21 28.851 135.973 28.851H149.132C151.166 28.851 153.065 30.0965 153.744 32.034C158.356 44.3509 163.104 56.6677 167.716 69.123C167.851 69.3997 168.258 69.3997 168.394 69.123C173.006 56.6677 177.483 44.3509 182.095 32.034C182.773 30.0965 184.672 28.851 186.571 28.851H196.881Z" fill="#FDFFFC"/>
<path d="M213.732 24.8377C209.256 24.8377 205.729 21.1011 205.729 16.5342C205.729 11.9673 209.256 8.23068 213.732 8.23068C218.209 8.23068 221.871 11.9673 221.871 16.5342C221.871 21.1011 218.209 24.8377 213.732 24.8377ZM218.751 28.9894C220.65 28.9894 222.007 29.9582 222.007 31.3421V92.5111C222.007 93.7567 220.65 94.8638 218.751 94.8638H209.12C207.221 94.8638 205.865 93.7567 205.865 92.5111V31.3421C205.865 29.9582 207.221 28.9894 209.12 28.9894H218.751Z" fill="#FDFFFC"/>
<path d="M265.976 28.4358C267.061 28.4358 267.739 29.4046 267.739 30.3733V43.2437C267.739 44.6277 266.519 45.458 265.298 45.0428C262.178 44.0741 256.752 42.967 251.326 45.7348C248.07 47.3955 245.493 49.8865 243.729 52.9312V92.7879C243.729 94.0334 242.237 95.1406 240.474 95.1406H230.842C228.943 95.1406 227.587 94.0334 227.587 92.7879V31.0653C227.587 29.6814 228.943 28.7126 230.842 28.7126H240.474C242.237 28.7126 243.729 29.6814 243.729 31.0653V33.0028C245.628 32.034 247.663 31.2037 249.834 30.5117C256.345 28.2975 262.042 28.1591 265.976 28.4358Z" fill="#FDFFFC"/>
<path d="M334.942 60.5427C335.891 76.0425 324.904 85.8683 323.14 87.3906C309.575 99.2923 292.754 94.8638 291.94 94.587C276.069 90.0201 270.101 75.6274 269.422 73.9667C265.082 59.7123 269.422 44.4893 280.41 35.909C294.789 24.5609 312.288 31.3421 313.373 31.8956C324.09 36.1858 334.128 46.7035 334.942 60.5427ZM300.351 76.3193C308.49 76.8729 315.815 69.9533 315.544 61.9266C315.272 53.8999 307.812 47.9491 300.351 48.5026C294.382 48.9178 289.092 53.4847 287.328 59.9891C286.514 68.2926 292.483 75.6274 300.351 76.3193Z" fill="#FDFFFC"/>
</svg>
