<svg width="17" height="19" viewBox="0 0 17 19" fill="none" xmlns="http://www.w3.org/2000/svg">
<path d="M14.7278 4.00957C14.6012 3.94417 14.478 3.87247 14.3586 3.79476C14.0115 3.56528 13.6932 3.29489 13.4106 2.98941C12.7036 2.18054 12.4395 1.35996 12.3422 0.785432H12.3461C12.2649 0.308549 12.2985 0 12.3036 0H9.08325V12.4505C9.08325 12.6177 9.08325 12.7829 9.07622 12.9461C9.07622 12.9665 9.07426 12.9852 9.07309 13.0071C9.07309 13.0161 9.07309 13.0254 9.07114 13.0348V13.0418C9.03719 13.4886 8.89397 13.9201 8.65407 14.2985C8.41417 14.6769 8.08495 14.9905 7.69536 15.2118C7.28932 15.4428 6.83008 15.564 6.36293 15.5633C4.86254 15.5633 3.64653 14.3401 3.64653 12.8294C3.64653 11.3187 4.86254 10.0954 6.36293 10.0954C6.64695 10.0951 6.92922 10.1398 7.19926 10.2278L7.20317 6.94937C6.38339 6.84349 5.55056 6.90864 4.75722 7.14069C3.96388 7.37274 3.22725 7.76666 2.59379 8.29761C2.03874 8.77981 1.57211 9.35515 1.21489 9.99775C1.07895 10.2321 0.566059 11.1738 0.50395 12.702C0.464887 13.5695 0.725434 14.4682 0.849653 14.8396V14.8474C0.927778 15.0662 1.23051 15.8125 1.72387 16.4417C2.1217 16.9464 2.59172 17.3898 3.11879 17.7576V17.7497L3.12661 17.7576C4.68559 18.8168 6.41411 18.7473 6.41411 18.7473C6.71333 18.7351 7.71567 18.7473 8.85395 18.2079C10.1165 17.6099 10.8352 16.719 10.8352 16.719C11.2944 16.1867 11.6595 15.5801 11.9149 14.9252C12.2063 14.1593 12.3036 13.2406 12.3036 12.8735V6.26822C12.3426 6.29166 12.8629 6.63575 12.8629 6.63575C12.8629 6.63575 13.6125 7.11614 14.7821 7.42899C15.6211 7.65161 16.7516 7.69848 16.7516 7.69848V4.50207C16.3555 4.54504 15.5512 4.42006 14.7278 4.00957Z" fill="white"/>
</svg>
